<mxfile host="app.diagrams.net" modified="2022-05-26T04:15:48.896Z" agent="5.0 (Windows NT 10.0; Win64; x64) AppleWebKit/537.36 (KHTML, like Gecko) Chrome/101.0.4951.64 Safari/537.36 Edg/101.0.1210.53" etag="8VVEO9cggHhJzquonnDj" version="18.0.5" type="github">
  <diagram id="O1NvgphcWZT3awRXti5W" name="第 1 页">
    <mxGraphModel dx="1209" dy="741" grid="1" gridSize="10" guides="1" tooltips="1" connect="1" arrows="1" fold="1" page="1" pageScale="1" pageWidth="827" pageHeight="1169" math="0" shadow="0">
      <root>
        <mxCell id="0" />
        <mxCell id="1" parent="0" />
      </root>
    </mxGraphModel>
  </diagram>
</mxfile>
